# Blender v2.91.2 OBJ File: 'Shield_model_blend.blend'
# www.blender.org
mtllib Shield_model.mtl
o Shield_Cube
v 0.427215 1.491275 0.803483
v 0.390904 0.940603 0.818819
v 0.477727 1.491275 0.894853
v 0.435717 0.940603 0.912148
v 0.427215 1.209077 0.803483
v 0.477727 1.209077 0.894853
v 0.210769 0.607119 0.884749
v 0.230067 1.491275 0.986125
v 0.230067 0.607119 0.986125
v 0.210769 1.491275 0.884749
v 0.210769 1.148170 0.884749
v 0.230067 1.148170 0.986125
v -0.427215 1.491275 0.803483
v -0.390904 0.940603 0.818819
v -0.477727 1.491275 0.894853
v -0.435717 0.940603 0.912148
v -0.427215 1.209077 0.803483
v -0.477727 1.209077 0.894853
v -0.210769 0.607119 0.884749
v 0.000000 0.447239 0.922999
v -0.230067 1.491275 0.986125
v 0.000000 1.491275 1.017809
v 0.000000 0.447239 1.027402
v -0.230067 0.607119 0.986125
v 0.000000 1.491275 0.913833
v -0.210769 1.491275 0.884749
v -0.000000 1.127551 0.913833
v -0.210769 1.148170 0.884749
v -0.230067 1.148170 0.986125
v 0.000000 1.127551 1.017809
v 0.422676 1.082541 0.805400
v 0.472476 1.082541 0.897015
v 0.452471 1.491275 0.849168
v 0.346996 0.766573 0.947338
v 0.318460 1.491275 0.848148
v 0.413311 0.940603 0.865484
v 0.427215 1.345894 0.803483
v 0.477727 1.345894 0.894853
v 0.318460 1.175411 0.848148
v 0.452471 1.209077 0.849168
v 0.313921 0.766573 0.850066
v 0.104853 0.507908 0.907907
v 0.352248 1.491275 0.945176
v 0.113384 1.491275 1.010251
v 0.113384 0.507907 1.011451
v 0.104853 1.491275 0.906761
v 0.104853 1.132388 0.906761
v 0.352248 1.175411 0.945176
v 0.113384 1.132388 1.010251
v 0.230067 0.896202 0.986125
v 0.000000 0.828753 1.018609
v -0.000000 0.828753 0.914597
v 0.210769 0.896202 0.884749
v 0.000000 1.335703 0.913833
v 0.210769 1.338280 0.884749
v 0.000000 0.447239 0.975201
v 0.220418 0.607119 0.935437
v 0.230067 1.338280 0.986125
v 0.000000 1.335703 1.017809
v 0.220418 1.491275 0.935437
v 0.000000 1.491275 0.965821
v -0.422676 1.082541 0.805400
v -0.472476 1.082541 0.897015
v -0.452471 1.491275 0.849168
v -0.346996 0.766573 0.947338
v -0.318460 1.491275 0.848148
v -0.413311 0.940603 0.865484
v -0.427215 1.345894 0.803483
v -0.477727 1.345894 0.894853
v -0.318460 1.175411 0.848148
v -0.452471 1.209077 0.849168
v -0.313921 0.766573 0.850066
v -0.104853 0.507908 0.907907
v -0.352248 1.491275 0.945176
v -0.113384 1.491275 1.010251
v -0.113384 0.507907 1.011451
v -0.104853 1.491275 0.906761
v -0.104853 1.132388 0.906761
v -0.352248 1.175411 0.945176
v -0.113384 1.132388 1.010251
v -0.230067 0.896202 0.986125
v -0.210769 0.896202 0.884749
v -0.210769 1.338280 0.884749
v -0.220418 0.607119 0.935437
v -0.230067 1.338280 0.986125
v -0.220418 1.491275 0.935437
v 0.330459 0.766573 0.898702
v 0.452471 1.345894 0.849168
v 0.318460 1.341685 0.848148
v 0.317704 0.980666 0.848468
v 0.447576 1.082541 0.851207
v 0.351372 0.980666 0.945536
v 0.113384 0.846130 1.010451
v 0.104853 0.846130 0.906952
v 0.104853 1.336307 0.906761
v 0.109118 0.507907 0.959679
v 0.352248 1.341685 0.945176
v 0.113384 1.336307 1.010251
v 0.335354 1.491275 0.896662
v 0.109118 1.491275 0.958506
v -0.330459 0.766573 0.898702
v -0.452471 1.345893 0.849168
v -0.318460 1.341685 0.848148
v -0.317704 0.980666 0.848468
v -0.447576 1.082541 0.851207
v -0.351372 0.980666 0.945536
v -0.113384 0.846130 1.010451
v -0.104853 0.846130 0.906952
v -0.104853 1.336307 0.906761
v -0.109118 0.507907 0.959679
v -0.352248 1.341685 0.945176
v -0.113384 1.336307 1.010251
v -0.335354 1.491275 0.896662
v -0.109118 1.491275 0.958506
v 0.427215 1.209077 0.803483
v 0.422676 1.082541 0.805400
v 0.390904 0.940603 0.818819
v 0.477727 1.209077 0.894853
v 0.472476 1.082541 0.897015
v 0.435717 0.940603 0.912148
v 0.427215 1.491275 0.803483
v 0.427215 1.491275 0.803483
v 0.452471 1.491275 0.849168
v 0.477727 1.491275 0.894853
v 0.477727 1.491275 0.894853
v 0.230067 0.607119 0.986125
v 0.346996 0.766573 0.947338
v 0.210769 1.491275 0.884749
v 0.318460 1.491275 0.848148
v 0.427215 1.345894 0.803483
v 0.477727 1.345894 0.894853
v 0.313921 0.766573 0.850066
v 0.210769 0.607119 0.884749
v 0.104853 0.507908 0.907907
v 0.000000 0.447239 0.922999
v 0.000000 0.447239 0.922999
v 0.352248 1.491275 0.945176
v 0.230067 1.491275 0.986125
v 0.113384 1.491275 1.010251
v 0.000000 1.491275 1.017809
v 0.000000 0.447239 1.027402
v 0.000000 0.447239 1.027402
v 0.113384 0.507907 1.011451
v 0.000000 1.491275 0.913833
v 0.104853 1.491275 0.906761
v 0.000000 0.447239 0.975201
v -0.427215 1.209077 0.803483
v -0.422676 1.082541 0.805400
v -0.390904 0.940603 0.818819
v -0.477727 1.209077 0.894853
v -0.472476 1.082541 0.897015
v -0.435717 0.940603 0.912148
v -0.427215 1.491275 0.803483
v -0.427215 1.491275 0.803483
v -0.452471 1.491275 0.849168
v -0.477727 1.491275 0.894853
v -0.477727 1.491275 0.894853
v -0.230067 0.607119 0.986125
v -0.346996 0.766573 0.947338
v -0.210769 1.491275 0.884749
v -0.318460 1.491275 0.848148
v -0.427215 1.345894 0.803483
v -0.477727 1.345894 0.894853
v -0.313921 0.766573 0.850066
v -0.210769 0.607119 0.884749
v -0.104853 0.507908 0.907907
v -0.352248 1.491275 0.945176
v -0.230067 1.491275 0.986125
v -0.113384 1.491275 1.010251
v -0.113384 0.507907 1.011451
v -0.104853 1.491275 0.906761
vt 0.312500 0.500000
vt 0.344618 0.625000
vt 0.312500 0.625000
vt 0.375000 0.500000
vt 0.343750 0.500000
vt 0.383681 0.625000
vt 0.343750 0.750000
vt 0.312500 0.750000
vt 0.500000 0.500000
vt 0.562500 0.625000
vt 0.500000 0.625000
vt 0.625000 0.500000
vt 0.562500 0.500000
vt 0.625000 0.625000
vt 0.562500 0.750000
vt 0.500000 0.750000
vt 0.562500 0.437500
vt 0.500000 0.468750
vt 0.500000 0.437500
vt 0.625000 0.437500
vt 0.562500 0.468750
vt 0.625000 0.468750
vt 0.562500 0.500000
vt 0.500000 0.500000
vt 0.437500 0.437500
vt 0.375000 0.468750
vt 0.375000 0.437500
vt 0.437500 0.468750
vt 0.437500 0.500000
vt 0.375000 0.500000
vt 0.437500 0.500000
vt 0.438368 0.625000
vt 0.437500 0.750000
vt 0.375000 0.750000
vt 0.375000 0.750000
vt 0.437500 0.781250
vt 0.375000 0.781250
vt 0.437500 0.750000
vt 0.500000 0.781250
vt 0.500000 0.812500
vt 0.437500 0.812500
vt 0.375000 0.812500
vt 0.437500 0.843750
vt 0.375000 0.843750
vt 0.500000 0.843750
vt 0.500000 0.875000
vt 0.437500 0.875000
vt 0.375000 0.875000
vt 0.437500 0.375000
vt 0.375000 0.406250
vt 0.375000 0.375000
vt 0.500000 0.375000
vt 0.437500 0.406250
vt 0.500000 0.406250
vt 0.562500 0.375000
vt 0.625000 0.375000
vt 0.562500 0.406250
vt 0.625000 0.406250
vt 0.250000 0.500000
vt 0.281250 0.625000
vt 0.250000 0.625000
vt 0.281250 0.500000
vt 0.281250 0.750000
vt 0.250000 0.750000
vt 0.500000 0.750000
vt 0.562500 0.781250
vt 0.562500 0.750000
vt 0.625000 0.781250
vt 0.625000 0.812500
vt 0.562500 0.812500
vt 0.562500 0.843750
vt 0.625000 0.843750
vt 0.625000 0.875000
vt 0.562500 0.875000
vt 0.625000 0.500000
vt 0.656250 0.625000
vt 0.625000 0.625000
vt 0.687500 0.500000
vt 0.656250 0.500000
vt 0.687500 0.625000
vt 0.656250 0.750000
vt 0.625000 0.750000
vt 0.718750 0.500000
vt 0.750000 0.500000
vt 0.718750 0.625000
vt 0.750000 0.625000
vt 0.718750 0.750000
vt 0.687500 0.750000
vt 0.312500 0.500000
vt 0.344618 0.625000
vt 0.343750 0.500000
vt 0.312500 0.625000
vt 0.343750 0.750000
vt 0.383681 0.625000
vt 0.375000 0.500000
vt 0.500000 0.500000
vt 0.562500 0.625000
vt 0.562500 0.500000
vt 0.500000 0.750000
vt 0.500000 0.625000
vt 0.562500 0.750000
vt 0.625000 0.625000
vt 0.625000 0.500000
vt 0.500000 0.468750
vt 0.562500 0.437500
vt 0.500000 0.437500
vt 0.500000 0.500000
vt 0.562500 0.468750
vt 0.562500 0.500000
vt 0.625000 0.468750
vt 0.625000 0.437500
vt 0.375000 0.468750
vt 0.437500 0.437500
vt 0.375000 0.437500
vt 0.375000 0.500000
vt 0.437500 0.468750
vt 0.437500 0.500000
vt 0.437500 0.500000
vt 0.375000 0.750000
vt 0.438368 0.625000
vt 0.437500 0.750000
vt 0.375000 0.750000
vt 0.437500 0.781250
vt 0.437500 0.750000
vt 0.375000 0.781250
vt 0.437500 0.812500
vt 0.500000 0.812500
vt 0.500000 0.781250
vt 0.500000 0.750000
vt 0.375000 0.812500
vt 0.437500 0.843750
vt 0.375000 0.843750
vt 0.500000 0.843750
vt 0.375000 0.406250
vt 0.437500 0.406250
vt 0.500000 0.406250
vt 0.562500 0.406250
vt 0.625000 0.406250
vt 0.250000 0.500000
vt 0.281250 0.625000
vt 0.281250 0.500000
vt 0.250000 0.625000
vt 0.281250 0.750000
vt 0.312500 0.750000
vt 0.562500 0.781250
vt 0.562500 0.750000
vt 0.562500 0.812500
vt 0.625000 0.812500
vt 0.625000 0.781250
vt 0.625000 0.750000
vt 0.562500 0.843750
vt 0.625000 0.843750
vt 0.625000 0.500000
vt 0.656250 0.625000
vt 0.656250 0.500000
vt 0.625000 0.625000
vt 0.656250 0.750000
vt 0.687500 0.625000
vt 0.687500 0.500000
vt 0.718750 0.500000
vt 0.687500 0.750000
vt 0.718750 0.625000
vt 0.718750 0.750000
vt 0.625000 0.750000
vt 0.625000 0.500000
vt 0.625000 0.750000
vt 0.750000 0.750000
vt 0.625000 0.750000
vt 0.625000 0.500000
vt 0.250000 0.750000
vt 0.625000 0.750000
vn 0.7968 -0.5848 -0.1517
vn 0.8547 -0.4302 -0.2906
vn 0.8427 -0.4559 -0.2865
vn 0.7799 -0.6080 -0.1485
vn 0.8752 -0.0000 -0.4838
vn -0.3218 -0.0000 -0.9468
vn -0.3799 0.0000 -0.9250
vn -0.3187 -0.0000 -0.9479
vn -0.3213 0.0000 -0.9470
vn -0.3795 -0.0000 -0.9252
vn -0.3755 -0.0003 -0.9268
vn 0.8760 -0.2359 -0.4206
vn 0.8779 -0.0387 -0.4772
vn 0.8778 -0.0416 -0.4772
vn 0.8722 -0.2527 -0.4188
vn 0.3682 0.0003 0.9298
vn 0.3719 0.0000 0.9283
vn 0.3173 0.0000 0.9483
vn 0.3148 0.0000 0.9491
vn 0.2098 0.0029 0.9777
vn 0.2038 0.0007 0.9790
vn 0.0714 0.0027 0.9974
vn 0.1273 0.0229 0.9916
vn -0.1300 -0.0218 -0.9913
vn -0.0723 -0.0025 -0.9974
vn -0.2049 -0.0007 -0.9788
vn -0.2111 -0.0028 -0.9775
vn -0.0673 0.0000 -0.9977
vn -0.2035 0.0000 -0.9791
vn 0.4859 -0.8740 0.0000
vn 0.6578 -0.7512 -0.0542
vn 0.6402 -0.7664 -0.0528
vn 0.4718 -0.8817 -0.0000
vn 0.3722 0.0000 0.9281
vn 0.3178 -0.0000 0.9482
vn 0.2025 0.0000 0.9793
vn 0.0665 -0.0000 0.9978
vn -0.0000 1.0000 0.0000
vn -0.7820 -0.5637 -0.2659
vn -0.7656 -0.5883 -0.2603
vn -0.8427 -0.4559 -0.2865
vn -0.8547 -0.4302 -0.2906
vn -0.8752 0.0000 -0.4838
vn 0.3218 0.0000 -0.9468
vn 0.3799 -0.0000 -0.9250
vn 0.3187 -0.0000 -0.9479
vn 0.3755 -0.0003 -0.9268
vn 0.3795 -0.0000 -0.9252
vn 0.3213 0.0000 -0.9470
vn -0.8760 -0.2359 -0.4206
vn -0.8722 -0.2527 -0.4188
vn -0.8778 -0.0416 -0.4772
vn -0.8779 -0.0387 -0.4772
vn -0.3695 0.0034 0.9292
vn -0.3164 0.0015 0.9486
vn -0.3177 0.0003 0.9482
vn -0.3721 0.0004 0.9282
vn -0.2041 0.0000 0.9790
vn -0.0713 0.0029 0.9974
vn -0.0665 0.0007 0.9978
vn -0.2025 0.0000 0.9793
vn 0.1301 -0.0218 -0.9913
vn 0.2111 -0.0028 -0.9775
vn 0.2049 -0.0007 -0.9788
vn 0.0723 -0.0025 -0.9974
vn 0.0673 0.0000 -0.9977
vn 0.2035 0.0000 -0.9791
vn -0.4960 -0.8674 -0.0409
vn -0.4812 -0.8757 -0.0397
vn -0.6453 -0.7540 -0.1228
vn -0.6633 -0.7376 -0.1263
vn -0.3722 0.0000 0.9281
vn -0.3178 0.0000 0.9482
vn -0.0665 0.0000 0.9978
vn 0.7820 -0.5637 -0.2659
vn 0.8025 -0.4556 -0.3853
vn 0.7908 -0.4800 -0.3797
vn 0.7656 -0.5883 -0.2603
vn -0.3203 -0.0014 -0.9473
vn -0.3217 -0.0003 -0.9468
vn -0.3798 -0.0004 -0.9251
vn -0.3769 -0.0032 -0.9262
vn 0.8503 -0.2518 -0.4622
vn 0.8744 -0.0416 -0.4834
vn 0.8743 -0.0445 -0.4833
vn 0.8464 -0.2682 -0.4601
vn 0.3695 0.0034 0.9292
vn 0.3721 0.0004 0.9282
vn 0.3177 0.0003 0.9482
vn 0.3164 0.0015 0.9486
vn 0.2041 0.0000 0.9790
vn 0.0665 0.0007 0.9978
vn 0.0713 0.0029 0.9974
vn -0.0723 -0.0028 -0.9974
vn -0.0673 -0.0007 -0.9977
vn -0.2052 -0.0000 -0.9787
vn 0.4960 -0.8674 -0.0409
vn 0.6633 -0.7376 -0.1263
vn 0.6453 -0.7540 -0.1228
vn 0.4812 -0.8757 -0.0397
vn -0.7968 -0.5848 -0.1517
vn -0.7799 -0.6080 -0.1485
vn -0.7908 -0.4800 -0.3797
vn -0.8025 -0.4556 -0.3853
vn 0.3203 -0.0014 -0.9473
vn 0.3769 -0.0032 -0.9262
vn 0.3798 -0.0004 -0.9251
vn 0.3217 -0.0003 -0.9468
vn -0.8503 -0.2518 -0.4622
vn -0.8464 -0.2682 -0.4601
vn -0.8743 -0.0445 -0.4833
vn -0.8744 -0.0416 -0.4834
vn -0.3682 0.0003 0.9298
vn -0.3148 0.0000 0.9491
vn -0.3173 0.0000 0.9483
vn -0.3719 0.0000 0.9283
vn -0.2098 0.0029 0.9777
vn -0.1273 0.0229 0.9916
vn -0.0714 0.0027 0.9974
vn -0.2038 0.0007 0.9790
vn 0.0723 -0.0028 -0.9974
vn 0.2052 -0.0000 -0.9787
vn 0.0673 -0.0007 -0.9977
vn -0.4859 -0.8740 0.0000
vn -0.4718 -0.8817 -0.0000
vn -0.6402 -0.7664 -0.0527
vn -0.6578 -0.7512 -0.0542
usemtl Material
s off
f 133/1/1 87/2/1 57/3/1
f 2/4/2 87/2/2 132/5/2
f 36/6/3 127/7/3 87/2/3
f 57/3/4 127/7/4 126/8/4
f 5/9/5 88/10/5 40/11/5
f 121/12/5 88/10/5 130/13/5
f 123/14/5 131/15/5 88/10/5
f 88/10/5 118/16/5 40/11/5
f 55/17/6 39/18/6 11/19/6
f 128/20/6 89/21/6 55/17/6
f 129/22/7 37/23/7 89/21/7
f 89/21/7 115/24/7 39/18/7
f 53/25/8 41/26/8 7/27/8
f 11/19/9 90/28/9 53/25/9
f 39/18/10 116/29/10 90/28/10
f 90/28/11 117/30/11 41/26/11
f 31/31/12 36/6/12 2/4/12
f 5/9/13 91/32/13 31/31/13
f 40/11/14 119/33/14 91/32/14
f 91/32/15 120/34/15 36/6/15
f 4/35/16 92/36/16 34/37/16
f 32/38/17 48/39/17 92/36/17
f 92/36/18 12/40/18 50/41/18
f 34/37/19 50/41/19 9/42/19
f 9/42/20 93/43/20 143/44/20
f 50/41/21 49/45/21 93/43/21
f 93/43/22 30/46/22 51/47/22
f 143/44/23 51/47/23 141/48/23
f 52/49/24 134/50/24 135/51/24
f 27/52/25 94/53/25 52/49/25
f 47/54/26 53/25/26 94/53/26
f 94/53/27 7/27/27 134/50/27
f 54/55/28 47/54/28 27/52/28
f 144/56/28 95/57/28 54/55/28
f 145/58/29 55/17/29 95/57/29
f 95/57/29 11/19/29 47/54/29
f 136/59/30 96/60/30 146/61/30
f 42/62/31 57/3/31 96/60/31
f 96/60/32 126/8/32 45/63/32
f 146/61/33 45/63/33 142/64/33
f 6/65/34 97/66/34 48/39/34
f 38/67/34 137/68/34 97/66/34
f 97/66/35 138/69/35 58/70/35
f 48/39/35 58/70/35 12/40/35
f 12/40/36 98/71/36 49/45/36
f 58/70/36 139/72/36 98/71/36
f 98/71/37 140/73/37 59/74/37
f 49/45/37 59/74/37 30/46/37
f 1/75/38 99/76/38 33/77/38
f 10/78/38 99/76/38 35/79/38
f 60/80/38 43/81/38 99/76/38
f 33/77/38 43/81/38 3/82/38
f 46/83/38 60/80/38 10/78/38
f 25/84/38 100/85/38 46/83/38
f 61/86/38 44/87/38 100/85/38
f 100/85/38 8/88/38 60/80/38
f 165/89/39 101/90/39 164/91/39
f 84/92/40 159/93/40 101/90/40
f 159/93/41 67/94/41 101/90/41
f 101/90/42 14/95/42 164/91/42
f 17/96/43 102/97/43 162/98/43
f 150/99/43 102/97/43 71/100/43
f 163/101/43 155/102/43 102/97/43
f 162/98/43 155/102/43 153/103/43
f 70/104/44 83/105/44 28/106/44
f 147/107/45 103/108/45 70/104/45
f 68/109/45 161/110/45 103/108/45
f 103/108/44 160/111/44 83/105/44
f 72/112/46 82/113/46 19/114/46
f 149/115/47 104/116/47 72/112/47
f 148/117/48 70/104/48 104/116/48
f 104/116/49 28/106/49 82/113/49
f 67/94/50 62/118/50 14/95/50
f 152/119/51 105/120/51 67/94/51
f 151/121/52 71/100/52 105/120/52
f 105/120/53 17/96/53 62/118/53
f 16/122/54 106/123/54 63/124/54
f 65/125/55 81/126/55 106/123/55
f 106/123/56 29/127/56 79/128/56
f 63/124/57 79/128/57 18/129/57
f 24/130/58 107/131/58 81/126/58
f 170/132/59 51/47/59 107/131/59
f 107/131/60 30/46/60 80/133/60
f 81/126/61 80/133/61 29/127/61
f 166/134/62 52/49/62 135/51/62
f 19/114/63 108/135/63 166/134/63
f 82/113/64 78/136/64 108/135/64
f 108/135/65 27/52/65 52/49/65
f 78/136/66 54/55/66 27/52/66
f 28/106/67 109/137/67 78/136/67
f 83/105/67 171/138/67 109/137/67
f 109/137/66 144/56/66 54/55/66
f 20/139/68 110/140/68 73/141/68
f 56/142/69 76/143/69 110/140/69
f 110/140/70 158/144/70 84/92/70
f 73/141/71 84/92/71 165/89/71
f 18/129/72 111/145/72 69/146/72
f 79/128/73 85/147/73 111/145/73
f 111/145/73 168/148/73 167/149/73
f 69/146/72 167/149/72 157/150/72
f 29/127/61 112/151/61 85/147/61
f 80/133/74 59/74/74 112/151/74
f 112/151/74 140/73/74 169/152/74
f 85/147/61 169/152/61 168/148/61
f 13/153/38 113/154/38 66/155/38
f 64/156/38 74/157/38 113/154/38
f 74/157/38 86/158/38 113/154/38
f 113/154/38 26/159/38 66/155/38
f 86/158/38 77/160/38 26/159/38
f 21/161/38 114/162/38 86/158/38
f 75/163/38 61/86/38 114/162/38
f 114/162/38 25/84/38 77/160/38
f 133/1/75 132/5/75 87/2/75
f 2/4/76 36/6/76 87/2/76
f 36/6/77 120/34/77 127/7/77
f 57/3/78 87/2/78 127/7/78
f 5/9/5 130/13/5 88/10/5
f 121/12/5 123/14/5 88/10/5
f 123/14/5 124/164/5 131/15/5
f 88/10/5 131/15/5 118/16/5
f 55/17/6 89/21/6 39/18/6
f 128/20/6 129/22/6 89/21/6
f 129/22/7 122/165/7 37/23/7
f 89/21/7 37/23/7 115/24/7
f 53/25/79 90/28/79 41/26/79
f 11/19/80 39/18/80 90/28/80
f 39/18/81 115/24/81 116/29/81
f 90/28/82 116/29/82 117/30/82
f 31/31/83 91/32/83 36/6/83
f 5/9/84 40/11/84 91/32/84
f 40/11/85 118/16/85 119/33/85
f 91/32/86 119/33/86 120/34/86
f 4/35/87 32/38/87 92/36/87
f 32/38/88 6/65/88 48/39/88
f 92/36/89 48/39/89 12/40/89
f 34/37/90 92/36/90 50/41/90
f 9/42/91 50/41/91 93/43/91
f 50/41/36 12/40/36 49/45/36
f 93/43/92 49/45/92 30/46/92
f 143/44/93 93/43/93 51/47/93
f 52/49/94 94/53/94 134/50/94
f 27/52/95 47/54/95 94/53/95
f 47/54/29 11/19/29 53/25/29
f 94/53/96 53/25/96 7/27/96
f 54/55/28 95/57/28 47/54/28
f 144/56/28 145/58/28 95/57/28
f 145/58/29 128/20/29 55/17/29
f 95/57/29 55/17/29 11/19/29
f 136/59/97 42/62/97 96/60/97
f 42/62/98 133/1/98 57/3/98
f 96/60/99 57/3/99 126/8/99
f 146/61/100 96/60/100 45/63/100
f 6/65/34 38/67/34 97/66/34
f 38/67/34 125/166/34 137/68/34
f 97/66/35 137/68/35 138/69/35
f 48/39/35 97/66/35 58/70/35
f 12/40/36 58/70/36 98/71/36
f 58/70/36 138/69/36 139/72/36
f 98/71/37 139/72/37 140/73/37
f 49/45/37 98/71/37 59/74/37
f 1/75/38 35/79/38 99/76/38
f 10/78/38 60/80/38 99/76/38
f 60/80/38 8/88/38 43/81/38
f 33/77/38 99/76/38 43/81/38
f 46/83/38 100/85/38 60/80/38
f 25/84/38 61/86/38 100/85/38
f 61/86/38 22/167/38 44/87/38
f 100/85/38 44/87/38 8/88/38
f 165/89/101 84/92/101 101/90/101
f 84/92/102 158/144/102 159/93/102
f 159/93/103 152/119/103 67/94/103
f 101/90/104 67/94/104 14/95/104
f 17/96/43 71/100/43 102/97/43
f 150/99/43 163/101/43 102/97/43
f 163/101/43 156/168/43 155/102/43
f 162/98/43 102/97/43 155/102/43
f 70/104/44 103/108/44 83/105/44
f 147/107/45 68/109/45 103/108/45
f 68/109/45 154/169/45 161/110/45
f 103/108/44 161/110/44 160/111/44
f 72/112/105 104/116/105 82/113/105
f 149/115/106 148/117/106 104/116/106
f 148/117/107 147/107/107 70/104/107
f 104/116/108 70/104/108 28/106/108
f 67/94/109 105/120/109 62/118/109
f 152/119/110 151/121/110 105/120/110
f 151/121/111 150/99/111 71/100/111
f 105/120/112 71/100/112 17/96/112
f 16/122/113 65/125/113 106/123/113
f 65/125/114 24/130/114 81/126/114
f 106/123/115 81/126/115 29/127/115
f 63/124/116 106/123/116 79/128/116
f 24/130/117 170/132/117 107/131/117
f 170/132/118 141/48/118 51/47/118
f 107/131/119 51/47/119 30/46/119
f 81/126/120 107/131/120 80/133/120
f 166/134/121 108/135/121 52/49/121
f 19/114/122 82/113/122 108/135/122
f 82/113/67 28/106/67 78/136/67
f 108/135/123 78/136/123 27/52/123
f 78/136/66 109/137/66 54/55/66
f 28/106/67 83/105/67 109/137/67
f 83/105/67 160/111/67 171/138/67
f 109/137/66 171/138/66 144/56/66
f 20/139/124 56/142/124 110/140/124
f 56/142/125 23/170/125 76/143/125
f 110/140/126 76/143/126 158/144/126
f 73/141/127 110/140/127 84/92/127
f 18/129/72 79/128/72 111/145/72
f 79/128/73 29/127/73 85/147/73
f 111/145/73 85/147/73 168/148/73
f 69/146/72 111/145/72 167/149/72
f 29/127/61 80/133/61 112/151/61
f 80/133/74 30/46/74 59/74/74
f 112/151/74 59/74/74 140/73/74
f 85/147/61 112/151/61 169/152/61
f 13/153/38 64/156/38 113/154/38
f 64/156/38 15/171/38 74/157/38
f 74/157/38 21/161/38 86/158/38
f 113/154/38 86/158/38 26/159/38
f 86/158/38 114/162/38 77/160/38
f 21/161/38 75/163/38 114/162/38
f 75/163/38 22/167/38 61/86/38
f 114/162/38 61/86/38 25/84/38
