# Blender v2.91.2 OBJ File: 'Jaw.blend'
# www.blender.org
o Jaw.001_Plane.001
v 1.500000 0.500000 -0.007531
v 0.500000 0.500000 0.899774
v 1.000000 0.500000 0.638660
v 1.000000 0.300000 0.638660
v 1.000000 -0.300000 0.638660
v 0.500000 0.300000 0.899774
v 1.500000 0.300000 -0.007531
v -1.500000 0.500000 -0.007531
v 0.000000 0.500000 1.000000
v -0.500000 0.500000 0.899774
v -1.000000 0.500000 0.638660
v 0.000000 0.300000 1.000000
v 0.000000 -0.300000 1.000000
v -1.000000 0.300000 0.638660
v -1.000000 -0.300000 0.638660
v -0.500000 0.300000 0.899774
v -1.500000 0.300000 -0.007531
v 1.658177 0.500000 0.114861
v 0.566610 0.500000 1.088354
v 1.128342 0.500000 0.792040
v 1.128342 0.300000 0.792040
v 1.131938 -0.300000 0.788964
v 0.566329 0.300000 1.088452
v 1.658177 0.300000 0.114861
v -1.658177 0.500000 0.114861
v 0.000000 0.500000 1.200000
v -0.566610 0.500000 1.088354
v -1.128342 0.500000 0.792040
v 0.000000 0.300000 1.200000
v 0.000000 -0.300000 1.200000
v -1.128342 0.300000 0.792040
v -1.131938 -0.300000 0.788964
v -0.566329 0.300000 1.088452
v -1.658177 0.300000 0.114861
vt 0.833333 0.000000
vt 0.666667 0.250000
vt 0.666667 0.000000
vt 0.500000 0.250000
vt 0.500000 0.000000
vt 1.000000 0.000000
vt 0.833333 0.250000
vt 0.000000 0.000000
vt 0.833333 0.750000
vt 1.000000 0.250000
vt 0.666667 0.250000
vt 0.833333 0.000000
vt 0.666667 0.000000
vt 0.833333 0.250000
vt 1.000000 0.000000
vt 0.833333 0.750000
vt 1.000000 0.250000
vt 0.666667 0.000000
vt 0.833333 0.250000
vt 0.833333 0.000000
vt 0.500000 0.000000
vt 0.666667 0.250000
vt 1.000000 0.000000
vt 0.500000 0.250000
vt 0.000000 0.000000
vt 0.833333 0.750000
vt 1.000000 0.250000
vt 0.666667 0.000000
vt 0.833333 0.250000
vt 0.666667 0.250000
vt 1.000000 0.000000
vt 0.833333 0.000000
vt 0.833333 0.750000
vt 1.000000 0.250000
vn -0.4629 0.0000 -0.8864
vn -0.1965 0.0000 -0.9805
vn -0.7909 0.0000 -0.6120
vn 0.4629 0.0000 -0.8864
vn 0.1965 0.0000 -0.9805
vn 0.7909 0.0000 -0.6120
vn 0.4666 0.0000 0.8845
vn 0.1933 0.0002 0.9811
vn 0.7876 0.0000 0.6162
vn 0.1933 0.0000 0.9811
vn 0.4665 -0.0017 0.8845
vn 0.7876 0.0016 0.6162
vn -0.4665 -0.0002 0.8845
vn -0.1933 0.0000 0.9811
vn -0.7876 0.0000 0.6162
vn -0.4665 -0.0017 0.8845
vn -0.7876 0.0016 0.6162
vn 0.0000 1.0000 0.0000
vn 0.6120 0.0000 -0.7909
vn 0.7272 -0.6864 0.0000
vn 0.4368 -0.8138 -0.3834
vn -0.6907 -0.6812 0.2428
vn -0.6120 0.0000 -0.7909
vn -0.7218 -0.6439 -0.2537
vn -0.3622 -0.8060 -0.4681
vn 0.5215 -0.7201 0.4578
vn 0.4665 -0.0002 0.8845
vn -0.4666 0.0000 0.8845
vn -0.1933 0.0002 0.9811
vn 0.7218 -0.6439 -0.2537
vn 0.3622 -0.8060 -0.4681
vn -0.5215 -0.7201 0.4578
vn -0.7272 -0.6864 0.0000
vn -0.4368 -0.8138 -0.3834
vn 0.6907 -0.6812 0.2428
s off
f 3/1/1 6/2/1 2/3/1
f 2/3/2 12/4/2 9/5/2
f 1/6/3 4/7/3 3/1/3
f 6/2/2 13/8/2 12/4/2
f 6/2/1 4/7/1 5/9/1
f 4/7/3 7/10/3 5/9/3
f 16/11/4 11/12/4 10/13/4
f 12/4/5 10/13/5 9/5/5
f 14/14/6 8/15/6 11/12/6
f 16/11/5 12/4/5 13/8/5
f 16/11/4 15/16/4 14/14/4
f 14/14/6 15/16/6 17/17/6
f 19/18/7 21/19/7 20/20/7
f 26/21/8 23/22/8 19/18/8
f 21/19/9 18/23/9 20/20/9
f 23/22/10 29/24/10 30/25/10
f 23/22/11 22/26/11 21/19/11
f 21/19/12 22/26/12 24/27/12
f 27/28/13 31/29/13 33/30/13
f 26/21/14 33/30/14 29/24/14
f 25/31/15 31/29/15 28/32/15
f 33/30/14 30/25/14 29/24/14
f 33/30/16 31/29/16 32/33/16
f 31/29/17 34/34/17 32/33/17
f 3/1/18 18/23/18 1/6/18
f 9/5/18 19/18/18 2/3/18
f 3/1/18 19/18/18 20/20/18
f 1/6/19 24/27/19 7/10/19
f 13/8/20 23/22/20 30/25/20
f 5/9/21 24/27/21 22/26/21
f 5/9/22 23/22/22 6/2/22
f 11/12/18 25/31/18 28/32/18
f 9/5/18 27/28/18 26/21/18
f 11/12/18 27/28/18 10/13/18
f 17/17/23 25/31/23 8/15/23
f 13/8/24 33/30/24 16/11/24
f 15/16/25 34/34/25 17/17/25
f 15/16/26 33/30/26 32/33/26
f 3/1/1 4/7/1 6/2/1
f 2/3/2 6/2/2 12/4/2
f 1/6/3 7/10/3 4/7/3
f 16/11/4 14/14/4 11/12/4
f 12/4/5 16/11/5 10/13/5
f 14/14/6 17/17/6 8/15/6
f 19/18/27 23/22/27 21/19/27
f 26/21/10 29/24/10 23/22/10
f 21/19/9 24/27/9 18/23/9
f 27/28/28 28/32/28 31/29/28
f 26/21/29 27/28/29 33/30/29
f 25/31/15 34/34/15 31/29/15
f 3/1/18 20/20/18 18/23/18
f 9/5/18 26/21/18 19/18/18
f 3/1/18 2/3/18 19/18/18
f 1/6/19 18/23/19 24/27/19
f 13/8/30 6/2/30 23/22/30
f 5/9/31 7/10/31 24/27/31
f 5/9/32 22/26/32 23/22/32
f 11/12/18 8/15/18 25/31/18
f 9/5/18 10/13/18 27/28/18
f 11/12/18 28/32/18 27/28/18
f 17/17/23 34/34/23 25/31/23
f 13/8/33 30/25/33 33/30/33
f 15/16/34 32/33/34 34/34/34
f 15/16/35 16/11/35 33/30/35
